# xmcd
#
# Track frame offsets: 
#        150
#        20460
#        30787
#        50857
#        64055
#        78305
#        90487
#        110692
#        126765
#        144605
#        153440
#        160650
#        175220
#        186780
#        201750
#        217957
#        237230
#        244012
#        262550
#        284137
#
# Disc length: 3970 seconds
#
# Revision: 33
# Processed by: cddbd v1.5.2PL0 Copyright (c) Steve Scherf et al.
# Submitted via: ExactAudioCopyFreeDBPlugin 1.0
#
DISCID=0f0f8014
DTITLE=Various Artist - O Brother, Where Art Thou?
DYEAR=2000
DGENRE=Bluegrass
TTITLE0=James Carter and The Prisoners - Po Lazuras
TTITLE1=Harry McClintock - Big Rock Candy Mountain
TTITLE2=Norman Blake - You Are My Sunshine
TTITLE3=Alison Krauss - Down To The River To Pray
TTITLE4=Soggy Bottom Boys - I Am A Man Of Constant Sorrow
TTITLE5=Chris Thomas King - Hard Time Killing Floor Blues
TTITLE6=Norman Blake - I Am A Man Of Constant Sorrow
TTITLE7=The Whites - Keep On The Sunny Side
TTITLE8=Gillian Welch and Alison Krauss - I'll Fly Away
TTITLE9=Gillian Welch, Alison Krauss and Emmylou Harris -  - Didn't Leav
TTITLE9=e Nobody But The Baby
TTITLE10=Sarah, Hanna and Leah Peasall - In The Highways
TTITLE11=The Cox Family - I Am Weary (Let Me Rest)
TTITLE12=John Hartford - I Am A Man of Constant Sorrow
TTITLE13=Ralph Stanley - O Death
TTITLE14=Soggy Bottom Boys - In The Jailhouse Now
TTITLE15=Soggy Bottom Boys - I Am A Man Of Constant Sorrow
TTITLE16=John Hartford - Indian War Whoop
TTITLE17=Fairfield Four - Lonesome Valley
TTITLE18=The Stanley Brothers - Angel Band
TTITLE19=n/a - Data Track
EXTD=YEAR: 2000
EXTT0=
EXTT1=
EXTT2=
EXTT3=
EXTT4=
EXTT5=
EXTT6=
EXTT7=
EXTT8=
EXTT9=
EXTT10=
EXTT11=
EXTT12=
EXTT13=
EXTT14=
EXTT15=
EXTT16=
EXTT17=
EXTT18=
EXTT19=
PLAYORDER=
